<svg xmlns="http://www.w3.org/2000/svg" width="40" height="10" viewBox="0 0 40 10" version="1.1">
	<path d="M 1045.814 145.078 C 1027.676 147.739, 1015.488 153.315, 1002.244 165.013 C 982.440 182.504, 971.934 215.526, 975.010 250.615 C 977.475 278.730, 984.786 296.068, 1000.900 312.008 C 1017.455 328.386, 1036.931 335.033, 1064.411 333.683 C 1079.255 332.955, 1087.083 331.125, 1097.631 325.920 C 1114.946 317.375, 1128.464 300.412, 1134.497 279.659 C 1135.425 276.465, 1135.942 273.609, 1135.645 273.312 C 1135.349 273.015, 1128.591 271.550, 1120.629 270.057 L 1106.151 267.342 1105.031 271.792 C 1101.523 285.722, 1091.804 298.528, 1080.576 304.016 C 1072.256 308.081, 1061.468 309.652, 1051.485 308.251 C 1030.816 305.351, 1015.992 290.502, 1008.805 265.500 C 1006.755 258.370, 1006.511 255.434, 1006.557 238.500 C 1006.602 222.154, 1006.913 218.405, 1008.787 211.658 C 1016.274 184.700, 1034.539 169, 1058.413 169 C 1082.951 169, 1099.072 183.114, 1104.498 209.347 C 1104.977 211.665, 1105.498 212.100, 1107.294 211.683 C 1108.507 211.401, 1115.492 210.395, 1122.815 209.447 L 1136.129 207.723 1135.479 203.612 C 1134.409 196.844, 1129.458 183.354, 1125.865 177.414 C 1114.957 159.381, 1097.250 148.196, 1074.678 145.080 C 1065.790 143.853, 1054.171 143.852, 1045.814 145.078 M 703 237.500 L 703 330 717 330 L 731 330 731 310.732 L 731 291.464 741.491 281.009 C 750.534 271.997, 752.167 270.757, 753.319 272.027 C 754.054 272.837, 762.449 286.212, 771.976 301.750 L 789.296 330 805.255 330 C 818.879 330, 821.132 329.785, 820.650 328.531 C 820.340 327.724, 809.464 310.371, 796.482 289.971 C 783.499 269.571, 773.017 252.291, 773.188 251.571 C 773.360 250.851, 783.513 239.800, 795.750 227.013 C 807.987 214.227, 818 203.368, 818 202.883 C 818 202.397, 810.615 202, 801.588 202 L 785.176 202 758.925 231.250 C 744.487 247.338, 732.297 260.650, 731.837 260.833 C 731.377 261.017, 731 235.029, 731 203.083 L 731 145 717 145 L 703 145 703 237.500 M 1461 237.500 L 1461 330 1475 330 L 1489 330 1489 237.500 L 1489 145 1475 145 L 1461 145 1461 237.500 M 1173.843 146.931 C 1165.604 149.556, 1161 155.512, 1161 163.548 C 1161 173.473, 1168.184 180.385, 1178.500 180.385 C 1185.354 180.385, 1190.510 177.692, 1193.534 172.532 C 1198.362 164.293, 1195.847 153.530, 1188.071 149.160 C 1183.711 146.709, 1177.562 145.746, 1173.843 146.931 M 116 239.500 L 116 330 131 330 L 146 330 146 300.991 L 146 271.983 154.250 262.775 C 158.787 257.711, 164.809 251.084, 167.632 248.048 L 172.764 242.529 187.632 265.277 C 195.809 277.789, 208.671 297.470, 216.214 309.013 L 229.927 330 246.964 330 C 256.334 330, 264 329.764, 264 329.475 C 264 329.187, 248.229 304.815, 228.954 275.316 C 209.679 245.817, 194.135 221.191, 194.412 220.591 C 194.689 219.991, 209.268 203.750, 226.810 184.500 L 258.704 149.500 241.637 149.225 C 232.250 149.074, 224.049 149.151, 223.412 149.396 C 222.774 149.640, 205.532 168.776, 185.094 191.920 C 164.657 215.064, 147.500 234, 146.968 234 C 146.359 234, 146 218.224, 146 191.500 L 146 149 131 149 L 116 149 116 239.500 M 329.500 200.101 C 314.033 201.263, 301.528 206.577, 292.973 215.622 C 287.265 221.657, 283.323 229.363, 282.364 236.359 L 281.720 241.057 296.070 240.778 L 310.420 240.500 311.043 237.500 C 312.546 230.258, 316.755 225.323, 324.263 222.002 C 337.913 215.964, 354.842 219.972, 360.738 230.637 C 363.207 235.103, 365.702 249.698, 364.245 251.155 C 363.752 251.648, 355.507 252.975, 345.924 254.102 C 302.639 259.195, 286.152 266.363, 279.966 282.779 C 276.797 291.188, 277.440 304.388, 281.390 312.043 C 285.331 319.681, 289.397 323.590, 297.500 327.537 C 311.807 334.504, 331.318 334.469, 345.967 327.448 C 353.499 323.839, 360.802 317.328, 363.073 312.198 C 363.851 310.439, 364.789 309, 365.156 309 C 365.898 309, 366.587 313.134, 367.530 323.250 L 368.159 330 382.147 330 C 394.997 330, 396.093 329.858, 395.623 328.250 C 393.433 320.759, 392.687 309.847, 392.016 275.500 C 391.212 234.363, 390.908 231.639, 385.993 221.486 C 383.072 215.451, 375.693 208.230, 369.517 205.363 C 359.724 200.816, 345.273 198.916, 329.500 200.101 M 465.376 200.086 C 445.750 201.927, 432.262 209.628, 425.850 222.653 C 423.004 228.435, 422.617 230.199, 422.624 237.361 C 422.629 241.838, 423.159 247.327, 423.803 249.559 C 426.479 258.835, 434.265 266.769, 444.747 270.900 C 447.520 271.993, 458.498 274.510, 469.144 276.494 C 491.622 280.682, 497.836 283.027, 500.321 288.264 C 503.425 294.804, 502.411 299.698, 496.706 305.728 C 492.021 310.678, 485.807 312.288, 473.167 311.826 C 464.346 311.503, 461.540 310.991, 456.954 308.867 C 449.911 305.604, 444.640 300.978, 441.284 295.113 C 439.832 292.576, 438.509 290.322, 438.343 290.105 C 437.800 289.390, 417 297.395, 417 298.318 C 417 298.814, 418.454 301.983, 420.232 305.360 C 429.952 323.825, 452.321 334.085, 479.638 332.607 C 509.060 331.015, 525.618 317.957, 526.807 295.409 C 527.315 285.787, 525.473 278.334, 521.095 272.289 C 514.222 262.802, 506.038 259.376, 479.749 254.982 C 458.675 251.459, 452.177 249.001, 449.603 243.576 C 445.789 235.537, 449.072 226.633, 457.459 222.271 C 464.854 218.425, 481.979 219.039, 491.382 223.487 C 496.109 225.724, 503.544 232.473, 506.500 237.211 C 507.382 238.625, 508.623 238.296, 517 234.429 C 525.642 230.440, 526.482 229.808, 526.300 227.438 C 525.995 223.462, 520.662 215.911, 515.304 211.870 C 506.119 204.941, 496.676 201.367, 485.202 200.477 C 480.966 200.149, 476.600 199.754, 475.500 199.601 C 474.400 199.449, 469.844 199.666, 465.376 200.086 M 883 200.151 C 859.932 201.922, 842.984 213.788, 837.609 231.932 C 834.738 241.623, 833.988 241.094, 850.168 240.777 L 864.336 240.500 865.796 236 C 867.963 229.319, 871.313 225.485, 877.742 222.328 C 882.648 219.918, 884.684 219.507, 891.500 219.549 C 895.900 219.576, 901.226 220.187, 903.336 220.905 C 912.121 223.898, 917.449 232.217, 918.615 244.764 L 919.262 251.734 914.881 252.361 C 912.472 252.707, 904.200 253.693, 896.500 254.553 C 865.881 257.973, 849.294 263.522, 840.312 273.349 C 834.406 279.811, 832 286.390, 832 296.077 C 832 312.259, 841.592 324.940, 857.617 329.943 C 880.380 337.050, 905.322 330.350, 915.922 314.282 C 917.804 311.429, 919.716 309.325, 920.172 309.606 C 920.627 309.888, 921.004 312.229, 921.009 314.809 C 921.013 317.389, 921.301 321.863, 921.648 324.750 L 922.279 330 936.139 330 C 946.584 330, 949.989 329.692, 949.956 328.750 C 949.932 328.063, 949.451 325.475, 948.887 323 C 948.323 320.525, 947.476 300.725, 947.005 279 C 946.087 236.672, 945.548 231.962, 940.472 221.945 C 931.922 205.073, 912.891 197.856, 883 200.151 M 1291.255 200.147 C 1278.318 201.660, 1266.943 210.734, 1260.098 225 L 1256.500 232.500 1256 217.500 L 1255.500 202.500 1242.750 202.220 L 1230 201.940 1230 265.970 L 1230 330 1244 330 L 1258 330 1258 299.072 C 1258 282.062, 1258.480 264.625, 1259.067 260.322 C 1260.383 250.670, 1263.506 243.577, 1269.120 237.485 C 1275.074 231.027, 1281.388 228.071, 1292.129 226.716 L 1301 225.596 1301 212.915 C 1301 198.339, 1301.468 198.953, 1291.255 200.147 M 1368.500 200.021 C 1352.835 201.429, 1341.225 206.852, 1331.239 217.427 C 1318.854 230.545, 1314.639 242.819, 1314.559 266 C 1314.504 282.013, 1315.749 288.527, 1321.027 299.847 C 1327.869 314.523, 1339.215 324.360, 1355.422 329.667 C 1362.266 331.908, 1365.333 332.321, 1375.500 332.373 C 1389.456 332.445, 1395.772 331.215, 1405.472 326.536 C 1414.327 322.265, 1419.754 317.617, 1424.919 309.883 C 1428.585 304.393, 1433.683 291.350, 1432.590 290.257 C 1432.032 289.699, 1410.027 285.012, 1407.933 285.005 C 1406.913 285.002, 1405.775 286.872, 1404.676 290.359 C 1401.407 300.728, 1394.466 307.295, 1383.759 310.147 C 1379.971 311.156, 1377.559 311.162, 1371.759 310.178 C 1353.627 307.099, 1344.421 293.937, 1343.306 269.500 C 1341.972 240.245, 1354.065 221.951, 1374.951 221.627 C 1383.972 221.486, 1390.135 223.486, 1395.654 228.345 C 1400.344 232.473, 1404.972 240.606, 1404.990 244.750 C 1405.002 247.540, 1405.198 247.540, 1420.632 244.820 C 1434.820 242.319, 1434.374 242.875, 1430.577 232.416 C 1424.454 215.548, 1410.811 204.359, 1392.431 201.130 C 1383.964 199.643, 1376.544 199.299, 1368.500 200.021 M 1571.226 200.235 C 1545.231 202.636, 1525.999 220.468, 1520.566 247.208 C 1518.549 257.136, 1518.517 277.518, 1520.503 287.185 C 1523.608 302.295, 1532.626 315.949, 1544.500 323.515 C 1563.111 335.375, 1592.492 336.093, 1613.500 325.200 C 1621.649 320.975, 1630.263 312.712, 1634.284 305.263 C 1637.512 299.281, 1638.492 300.374, 1624.574 294.426 C 1616.209 290.851, 1615.580 290.725, 1614.574 292.416 C 1606.221 306.454, 1596.525 311.624, 1580.098 310.798 C 1569.683 310.274, 1564.062 308.009, 1557.162 301.555 C 1551.244 296.019, 1547.012 287.225, 1546.256 278.892 L 1545.722 273 1591.995 273 L 1638.268 273 1637.732 257.750 C 1637.377 247.624, 1636.628 240.652, 1635.503 237 C 1627.187 209.997, 1604.713 197.142, 1571.226 200.235 M 553.373 203.471 C 553.050 204.312, 553.006 225.362, 553.275 250.250 C 553.814 300.053, 554.111 302.799, 560.183 314.192 C 565.741 324.620, 574.484 330.125, 588.799 332.212 C 608.267 335.049, 627.101 326.596, 635.160 311.404 C 636.445 308.982, 637.835 307, 638.248 307 C 638.662 307, 639 312.175, 639 318.500 L 639 330 652.007 330 L 665.015 330 664.757 266.250 L 664.500 202.500 651 202.500 L 637.500 202.500 637 243.500 C 636.507 283.946, 636.467 284.581, 634.087 290.493 C 632.435 294.598, 629.888 298.272, 626 302.160 C 619.488 308.672, 615.106 310.383, 604.922 310.388 C 594.395 310.394, 587.430 305.389, 583.252 294.816 C 581.768 291.059, 581.479 284.797, 581.023 246.500 L 580.500 202.500 567.230 202.221 C 556.070 201.986, 553.866 202.185, 553.373 203.471 M 1165 266 L 1165 330.056 1178.750 329.778 L 1192.500 329.500 1192.500 266 L 1192.500 202.500 1178.750 202.222 L 1165 201.944 1165 266 M 1569.979 219.296 C 1556.970 222.243, 1547.861 233.559, 1546.270 248.750 L 1545.720 254 1577.860 254 L 1610 254 1610 249.605 C 1610 242.451, 1606.498 232.847, 1602.043 227.786 C 1595.070 219.865, 1582.343 216.495, 1569.979 219.296 M 341.715 271.628 C 323.801 274.381, 316.471 276.747, 311.591 281.349 C 305.589 287.010, 304.588 297.126, 309.334 304.167 C 310.525 305.935, 313.743 308.533, 316.485 309.941 C 320.768 312.140, 322.739 312.495, 330.485 312.467 C 338.031 312.439, 340.411 312.012, 345.086 309.847 C 358.050 303.845, 364.883 291.103, 364.980 272.750 C 365 269.062, 364.938 269.002, 361.250 269.101 C 359.188 269.157, 350.397 270.294, 341.715 271.628 M 897 271.513 C 878.104 274.473, 873.785 275.649, 868.946 279.154 C 863.255 283.277, 861.008 287.420, 861.004 293.800 C 860.999 300.026, 862.615 303.577, 867.340 307.726 C 874.665 314.157, 890.251 314.648, 901.233 308.795 C 912.234 302.932, 917.560 293.508, 918.664 277.952 L 919.299 269 915.400 269.121 C 913.255 269.188, 904.975 270.264, 897 271.513" stroke="none" fill="#000000" fill-rule="evenodd"/>
</svg>
