<?xml version="1.0" standalone="no"?>
<!DOCTYPE svg PUBLIC "-//W3C//DTD SVG 20010904//EN"
 "http://www.w3.org/TR/2001/REC-SVG-20010904/DTD/svg10.dtd">
<svg version="1.0" xmlns="http://www.w3.org/2000/svg"
 width="5760.000000pt" height="1440.000000pt" viewBox="0 0 5760.000000 1440.000000"
 preserveAspectRatio="xMidYMid meet">
<g transform="translate(0.000000,1440.000000) scale(0.100000,-0.100000)"
fill="#000000" stroke="none">
<path d="M4947 13364 c-4 -4 -7 -299 -7 -656 l0 -648 89 0 c72 0 90 3 95 16 3
9 6 67 6 130 l0 114 57 63 c59 64 83 86 95 87 4 0 26 -30 48 -67 53 -87 74
-122 127 -208 7 -11 16 -27 20 -35 4 -8 20 -34 36 -57 l28 -43 109 0 c123 0
121 -2 70 75 -14 22 -29 47 -33 55 -4 8 -29 49 -56 90 -28 41 -69 106 -93 144
-24 38 -51 80 -60 95 -10 14 -22 36 -27 48 -5 11 -15 24 -20 28 -16 9 -5 22
154 190 77 82 140 153 140 159 0 13 -198 21 -218 9 -13 -8 -49 -47 -192 -208
-109 -122 -174 -189 -180 -183 -3 3 -7 185 -8 404 l-2 399 -85 3 c-47 1 -89 0
-93 -4z"/>
<path d="M7265 13350 c-74 -22 -107 -37 -165 -74 -291 -185 -350 -741 -112
-1053 30 -41 144 -125 196 -147 151 -63 376 -60 516 7 128 61 247 215 267 344
6 37 12 33 -99 58 -88 20 -108 16 -108 -19 0 -14 -4 -27 -9 -31 -5 -3 -12 -18
-16 -33 -7 -35 -87 -127 -129 -149 -149 -81 -342 -42 -438 87 -79 108 -102
188 -102 365 1 146 10 193 57 295 28 60 112 142 171 169 68 30 219 30 276 1
86 -44 140 -109 174 -210 10 -30 22 -58 25 -62 4 -4 50 0 104 9 l97 17 0 31
c0 76 -72 216 -147 287 -58 53 -111 82 -203 109 -87 26 -269 25 -355 -1z"/>
<path d="M10265 13358 c-3 -7 -4 -301 -3 -653 l3 -640 95 0 95 0 0 650 0 650
-93 3 c-68 2 -94 -1 -97 -10z"/>
<path d="M8223 13345 c-39 -17 -73 -68 -73 -110 0 -76 89 -140 162 -116 58 19
82 53 82 116 0 61 -18 89 -71 111 -40 17 -59 17 -100 -1z"/>
<path d="M807 13334 c-9 -9 -9 -1236 -1 -1258 9 -24 199 -24 208 0 3 9 6 101
6 204 l0 189 77 88 c111 128 102 126 160 40 26 -39 50 -77 53 -82 3 -6 30 -49
61 -95 138 -209 174 -266 178 -275 2 -5 17 -27 33 -47 l30 -38 114 0 c63 0
114 4 114 9 0 4 -11 25 -25 45 -14 20 -25 39 -25 41 0 2 -22 37 -49 77 -27 40
-87 132 -133 203 -47 72 -111 171 -144 220 -32 50 -61 95 -63 100 -2 6 -12 21
-23 34 -19 25 -16 56 7 76 6 5 74 80 151 165 76 85 141 157 144 160 36 31 119
133 115 140 -3 6 -57 10 -119 10 l-113 0 -44 -47 c-25 -27 -90 -100 -144 -163
-55 -63 -105 -119 -111 -125 -6 -5 -53 -59 -105 -120 -93 -109 -117 -134 -131
-135 -4 0 -9 132 -10 293 l-3 292 -101 3 c-55 1 -103 0 -107 -4z"/>
<path d="M2204 12961 c-108 -39 -165 -85 -205 -166 -46 -95 -43 -99 74 -103
86 -2 98 -1 103 15 29 94 77 127 189 127 67 1 85 -3 111 -21 46 -33 64 -66 70
-132 l7 -59 -39 -11 c-22 -7 -84 -16 -139 -21 -56 -5 -113 -14 -128 -19 -16
-6 -40 -11 -55 -11 -15 0 -40 -7 -56 -15 -15 -8 -32 -15 -37 -15 -13 0 -83
-49 -102 -73 -102 -123 -60 -309 87 -384 46 -24 61 -26 166 -26 138 0 186 17
260 94 26 27 50 46 54 42 3 -3 6 -25 6 -49 0 -73 1 -74 107 -74 l95 0 -7 33
c-4 17 -10 167 -14 332 -10 356 -15 380 -95 460 -72 72 -144 95 -292 94 -78 0
-123 -6 -160 -18z m339 -553 c-2 -86 -24 -134 -85 -180 -49 -38 -144 -56 -206
-40 -70 18 -102 58 -102 125 0 46 4 58 31 85 37 37 102 59 224 73 49 6 92 13
95 15 2 3 13 4 25 2 18 -3 20 -9 18 -80z"/>
<path d="M3185 12968 c-157 -54 -225 -133 -225 -260 1 -154 91 -234 300 -268
184 -29 221 -43 246 -92 22 -42 6 -95 -38 -128 -30 -23 -42 -25 -138 -25 -89
0 -111 3 -143 22 -43 24 -93 76 -103 105 -7 22 -16 22 -73 2 -94 -32 -99 -46
-51 -118 39 -57 76 -88 146 -121 76 -36 160 -48 277 -40 135 8 218 48 273 130
25 36 44 100 44 145 0 83 -56 181 -123 215 -39 21 -171 55 -212 55 -16 0 -64
9 -105 20 -56 14 -81 26 -97 47 -57 70 -2 164 102 177 110 13 204 -18 257 -85
17 -21 37 -39 44 -39 16 0 93 38 115 57 15 13 15 17 2 44 -54 108 -189 170
-367 168 -55 0 -114 -5 -131 -11z"/>
<path d="M6105 12961 c-77 -27 -113 -49 -155 -91 -57 -57 -101 -171 -70 -182
5 -1 50 -2 100 0 88 3 90 4 97 30 9 37 38 75 76 97 49 30 181 27 223 -4 41
-30 60 -66 69 -127 8 -65 0 -72 -106 -85 -79 -10 -144 -20 -249 -39 -156 -29
-250 -126 -250 -258 0 -104 50 -182 150 -233 40 -20 59 -23 160 -23 104 1 120
4 167 28 28 14 71 46 94 71 24 25 46 42 50 38 5 -5 9 -33 11 -63 l3 -55 99 -3
98 -3 -7 28 c-4 15 -11 163 -15 328 -7 308 -11 337 -55 422 -26 51 -90 100
-163 122 -87 28 -254 29 -327 2z m340 -492 c10 -32 -4 -128 -25 -167 -38 -70
-128 -122 -213 -122 -49 0 -104 21 -133 51 -23 24 -27 37 -27 85 0 54 2 60 37
89 38 31 116 54 256 73 97 14 98 14 105 -9z"/>
<path d="M9012 12965 c-53 -23 -95 -61 -143 -126 l-44 -61 -3 78 c-2 43 -8 84
-14 91 -8 10 -33 13 -87 11 l-76 -3 -3 -447 -2 -448 94 0 c76 0 95 3 100 16 3
9 6 124 6 257 0 202 3 249 17 287 37 100 107 154 219 168 l59 7 0 90 0 90 -45
2 c-25 2 -60 -4 -78 -12z"/>
<path d="M9512 12959 c-73 -27 -122 -59 -170 -114 -86 -98 -117 -201 -109
-362 7 -137 39 -229 108 -308 30 -34 112 -95 128 -95 4 0 23 -8 42 -17 27 -14
59 -18 159 -17 120 1 128 2 192 33 72 34 134 90 159 142 9 19 22 46 29 60 22
47 11 60 -69 80 -41 11 -83 17 -92 14 -10 -3 -21 -20 -25 -38 -9 -42 -47 -91
-90 -116 -26 -15 -53 -21 -100 -21 -104 0 -171 46 -214 145 -19 42 -22 69 -22
170 0 90 4 127 16 150 9 17 16 35 16 41 0 23 82 93 127 108 60 21 87 20 148
-3 57 -22 101 -68 116 -123 9 -34 13 -38 43 -38 51 0 145 21 157 36 7 9 6 20
-4 41 -8 15 -17 39 -20 53 -8 34 -71 106 -118 135 -20 14 -64 33 -95 45 -79
27 -235 27 -312 -1z"/>
<path d="M10947 12960 c-179 -59 -277 -222 -277 -460 0 -107 17 -187 56 -262
30 -58 105 -127 173 -160 64 -31 70 -32 201 -32 134 -1 166 6 230 45 8 5 24
13 36 18 26 12 103 98 116 130 10 29 4 51 -15 51 -7 0 -30 9 -52 20 -48 25
-74 25 -82 3 -12 -30 -54 -72 -96 -94 -32 -16 -59 -21 -124 -20 -71 0 -88 3
-129 27 -55 32 -96 86 -114 147 -24 88 -46 81 315 87 l320 5 -1 100 c-1 211
-84 341 -254 395 -83 27 -222 26 -303 0z m252 -138 c54 -28 97 -90 105 -152
11 -81 14 -80 -214 -80 -109 0 -205 3 -214 6 -19 7 -20 28 -4 91 17 65 86 135
148 150 58 15 133 9 179 -15z"/>
<path d="M3892 12948 c-14 -14 -17 -540 -3 -648 15 -113 63 -190 146 -233 33
-17 58 -21 145 -21 126 0 164 15 246 101 55 58 70 58 58 -2 -3 -19 -3 -46 0
-60 6 -25 8 -26 94 -23 l87 3 0 445 0 445 -95 0 -95 0 -5 -295 c-5 -277 -7
-297 -27 -335 -21 -40 -57 -78 -103 -108 -16 -12 -45 -17 -90 -17 -59 0 -69 3
-104 33 -64 55 -69 81 -75 422 l-6 300 -80 3 c-54 2 -84 -1 -93 -10z"/>
<path d="M8187 12953 c-4 -3 -7 -206 -7 -450 l0 -443 94 0 c89 0 94 1 100 23
3 12 6 209 6 438 0 309 -3 418 -12 427 -13 13 -169 17 -181 5z"/>
</g>
</svg>
